<svg width="64" height="64" viewBox="0 0 64 64" fill="none" xmlns="http://www.w3.org/2000/svg">
<path d="M42 32C42 40.8366 34.8366 48 26 48C17.1634 48 10 40.8366 10 32C10 23.1634 17.1634 16 26 16C34.8366 16 42 23.1634 42 32Z" fill="#E6E7E8"/>
<path d="M54 36C54 42.6274 48.6274 48 42 48C35.3726 48 30 42.6274 30 36C30 29.3726 35.3726 24 42 24C48.6274 24 54 29.3726 54 36Z" fill="#E6E7E8"/>
<path d="M26 40H42V48H26V40Z" fill="#E6E7E8"/>
<rect x="24.7463" y="49" width="2" height="12" rx="1" fill="#E6E7E8"/>
<rect x="30.3923" y="51.0837" width="2" height="12" rx="1" transform="rotate(60 30.3923 51.0837)" fill="#E6E7E8"/>
<rect x="20.0503" y="52.8661" width="2" height="12" rx="1" transform="rotate(-60 20.0503 52.8661)" fill="#E6E7E8"/>
<rect x="37.7463" y="49" width="2" height="12" rx="1" fill="#E6E7E8"/>
<rect x="43.3923" y="51.0837" width="2" height="12" rx="1" transform="rotate(60 43.3923 51.0837)" fill="#E6E7E8"/>
<rect x="33.0503" y="52.8661" width="2" height="12" rx="1" transform="rotate(-60 33.0503 52.8661)" fill="#E6E7E8"/>
</svg>
