<svg width="64" height="64" viewBox="0 0 64 64" fill="none" xmlns="http://www.w3.org/2000/svg">
<path d="M42 32C42 40.8366 34.8366 48 26 48C17.1634 48 10 40.8366 10 32C10 23.1634 17.1634 16 26 16C34.8366 16 42 23.1634 42 32Z" fill="#808285"/>
<path d="M54 36C54 42.6274 48.6274 48 42 48C35.3726 48 30 42.6274 30 36C30 29.3726 35.3726 24 42 24C48.6274 24 54 29.3726 54 36Z" fill="#808285"/>
<path d="M26 40H42V48H26V40Z" fill="#808285"/>
<path d="M30 51H38L30 63V51Z" fill="#FFAE46"/>
<path d="M34 55H26L34 43V55Z" fill="#FFAE46"/>
</svg>
