<svg width="56" height="56" viewBox="0 0 56 56" fill="none" xmlns="http://www.w3.org/2000/svg">
<path d="M36 13C36 17.4183 32.4183 21 28 21C23.5817 21 20 17.4183 20 13C20 8.58172 23.5817 5 28 5C32.4183 5 36 8.58172 36 13ZM22.8019 13C22.8019 15.8708 25.1292 18.1981 28 18.1981C30.8708 18.1981 33.1981 15.8708 33.1981 13C33.1981 10.1292 30.8708 7.80192 28 7.80192C25.1292 7.80192 22.8019 10.1292 22.8019 13Z" fill="white"/>
<path d="M23 51V38M23 38H32.5M23 38L21 25M32.5 38V51M32.5 38L35 25M35 25L48 19M35 25H21M21 25L8 19" stroke="rgba(255,255,255,0.9)" stroke-width="3"/>
</svg>
