<svg width="64" height="64" viewBox="0 0 64 64" fill="none" xmlns="http://www.w3.org/2000/svg">
<rect x="21.3076" y="49" width="3" height="12" rx="1.5" transform="rotate(16 21.3076 49)" fill="#01E5FF"/>
<rect x="28.3076" y="49" width="3" height="12" rx="1.5" transform="rotate(16 28.3076 49)" fill="#01E5FF"/>
<rect x="35.3076" y="49" width="3" height="12" rx="1.5" transform="rotate(16 35.3076 49)" fill="#01E5FF"/>
<rect x="42.3076" y="49" width="3" height="12" rx="1.5" transform="rotate(16 42.3076 49)" fill="#01E5FF"/>
<path fill-rule="evenodd" clip-rule="evenodd" d="M53.0417 25.0956C52.4299 25.1909 51.803 25.2404 51.1646 25.2404C44.4852 25.2404 39.0705 19.8257 39.0705 13.1463C39.0705 11.3059 39.4816 9.56155 40.217 8C34.429 8.90191 30 13.9084 30 19.9492C30 26.6286 35.4147 32.0433 42.094 32.0433C46.933 32.0433 51.1082 29.2014 53.0417 25.0956Z" fill="#CADCFC"/>
<path d="M42 32C42 40.8366 34.8366 48 26 48C17.1634 48 10 40.8366 10 32C10 23.1634 17.1634 16 26 16C34.8366 16 42 23.1634 42 32Z" fill="#E6E7E8"/>
<path d="M54 36C54 42.6274 48.6274 48 42 48C35.3726 48 30 42.6274 30 36C30 29.3726 35.3726 24 42 24C48.6274 24 54 29.3726 54 36Z" fill="#E6E7E8"/>
<path d="M26 40H42V48H26V40Z" fill="#E6E7E8"/>
</svg>
